REM DIRINDEX 1\2\6,1\2\7,1\2\8,1\2\9,1\3\10,1\3\11,1\4\12,1\4\13,1\4\14,1\5\15,1\5\16,1\5\17
REM DIRNAME folder01,folder02,folder03,folder04,folder05,folder06,folder07,folder08,folder09,folder10,folder11,folder12,folder13,folder14,folder15,folder16,folder17
TITLE ""
FILE "1900_2_sec11_1033_1048.mp3" MP3
  TRACK 01 AUDIO
    TITLE "0:"
    INDEX 01 00:00:00
  TRACK 02 AUDIO
    TITLE "13:cjc020_4194"
    INDEX 01 00:00:19
  TRACK 03 AUDIO
    TITLE "0:"
    INDEX 01 00:01:24
  TRACK 04 AUDIO
    TITLE "14:cjc020_4195"
    INDEX 01 00:01:26
  TRACK 05 AUDIO
    TITLE "0:"
    INDEX 01 00:03:25
  TRACK 06 AUDIO
    TITLE "13:cjc020_4196"
    INDEX 01 00:04:03
  TRACK 07 AUDIO
    TITLE "0:"
    INDEX 01 00:05:20
  TRACK 08 AUDIO
    TITLE "14:cjc020_4197"
    INDEX 01 00:05:22
  TRACK 09 AUDIO
    TITLE "0:"
    INDEX 01 00:06:59
  TRACK 10 AUDIO
    TITLE "13:cjc020_4198"
    INDEX 01 00:07:41
  TRACK 11 AUDIO
    TITLE "0:"
    INDEX 01 00:08:58
  TRACK 12 AUDIO
    TITLE "14:cjc020_4199"
    INDEX 01 00:08:62
  TRACK 13 AUDIO
    TITLE "0:"
    INDEX 01 00:10:14
  TRACK 14 AUDIO
    TITLE "13:cjc020_4200"
    INDEX 01 00:10:68
  TRACK 15 AUDIO
    TITLE "0:"
    INDEX 01 00:11:74
  TRACK 16 AUDIO
    TITLE "14:cjc020_4201"
    INDEX 01 00:12:01
  TRACK 17 AUDIO
    TITLE "0:"
    INDEX 01 00:14:41
  TRACK 18 AUDIO
    TITLE "13:cjc020_4202"
    INDEX 01 00:15:21
  TRACK 19 AUDIO
    TITLE "0:"
    INDEX 01 00:16:30
  TRACK 20 AUDIO
    TITLE "14:cjc020_4203"
    INDEX 01 00:16:34
  TRACK 21 AUDIO
    TITLE "0:"
    INDEX 01 00:17:63
  TRACK 22 AUDIO
    TITLE "13:cjc020_4204"
    INDEX 01 00:18:44
  TRACK 23 AUDIO
    TITLE "0:"
    INDEX 01 00:19:50
  TRACK 24 AUDIO
    TITLE "14:cjc020_4205"
    INDEX 01 00:19:54
  TRACK 25 AUDIO
    TITLE "0:"
    INDEX 01 00:21:04
  TRACK 26 AUDIO
    TITLE "13:cjc020_4206"
    INDEX 01 00:21:60
  TRACK 27 AUDIO
    TITLE "0:"
    INDEX 01 00:22:58
  TRACK 28 AUDIO
    TITLE "14:cjc020_4207"
    INDEX 01 00:22:60
  TRACK 29 AUDIO
    TITLE "0:"
    INDEX 01 00:25:50
  TRACK 30 AUDIO
    TITLE "13:cjc020_4208"
    INDEX 01 00:26:28
  TRACK 31 AUDIO
    TITLE "0:"
    INDEX 01 00:27:36
  TRACK 32 AUDIO
    TITLE "14:cjc020_4209"
    INDEX 01 00:27:43
  TRACK 33 AUDIO
    TITLE "0:"
    INDEX 01 00:29:66
  TRACK 34 AUDIO
    TITLE "12:cjc020_4210"
    INDEX 01 00:31:39
  TRACK 35 AUDIO
    TITLE "0:"
    INDEX 01 00:32:62
  TRACK 36 AUDIO
    TITLE "13:cjc020_4211"
    INDEX 01 00:33:62
  TRACK 37 AUDIO
    TITLE "0:"
    INDEX 01 00:35:06
  TRACK 38 AUDIO
    TITLE "14:cjc020_4212"
    INDEX 01 00:35:08
  TRACK 39 AUDIO
    TITLE "0:"
    INDEX 01 00:38:71
  TRACK 40 AUDIO
    TITLE "13:cjc020_4213"
    INDEX 01 00:39:51
  TRACK 41 AUDIO
    TITLE "0:"
    INDEX 01 00:40:72
  TRACK 42 AUDIO
    TITLE "14:cjc020_4214"
    INDEX 01 00:40:73
  TRACK 43 AUDIO
    TITLE "0:"
    INDEX 01 00:43:42
  TRACK 44 AUDIO
    TITLE "13:cjc020_4215"
    INDEX 01 00:44:24
  TRACK 45 AUDIO
    TITLE "0:"
    INDEX 01 00:45:30
  TRACK 46 AUDIO
    TITLE "14:cjc020_4216"
    INDEX 01 00:45:33
  TRACK 47 AUDIO
    TITLE "0:"
    INDEX 01 00:47:58
  TRACK 48 AUDIO
    TITLE "13:cjc020_4217"
    INDEX 01 00:48:42
  TRACK 49 AUDIO
    TITLE "0:"
    INDEX 01 00:49:55
  TRACK 50 AUDIO
    TITLE "14:cjc020_4218"
    INDEX 01 00:49:57
  TRACK 51 AUDIO
    TITLE "0:"
    INDEX 01 00:54:07
  TRACK 52 AUDIO
    TITLE "13:cjc020_4219"
    INDEX 01 00:54:60
  TRACK 53 AUDIO
    TITLE "0:"
    INDEX 01 00:55:73
  TRACK 54 AUDIO
    TITLE "14:cjc020_4220"
    INDEX 01 00:56:00
  TRACK 55 AUDIO
    TITLE "0:"
    INDEX 01 00:57:07
  TRACK 56 AUDIO
    TITLE "13:cjc020_4221"
    INDEX 01 00:57:62
  TRACK 57 AUDIO
    TITLE "0:"
    INDEX 01 00:58:69
  TRACK 58 AUDIO
    TITLE "14:cjc020_4222"
    INDEX 01 00:58:71
  TRACK 59 AUDIO
    TITLE "0:"
    INDEX 01 01:02:18
  TRACK 60 AUDIO
    TITLE "13:cjc020_4223"
    INDEX 01 01:02:71
  TRACK 61 AUDIO
    TITLE "0:"
    INDEX 01 01:04:11
  TRACK 62 AUDIO
    TITLE "14:cjc020_4224"
    INDEX 01 01:04:17
  TRACK 63 AUDIO
    TITLE "0:"
    INDEX 01 01:06:43
  TRACK 64 AUDIO
    TITLE "13:cjc020_4225"
    INDEX 01 01:07:23
  TRACK 65 AUDIO
    TITLE "0:"
    INDEX 01 01:08:42
  TRACK 66 AUDIO
    TITLE "14:cjc020_4226"
    INDEX 01 01:08:44
  TRACK 67 AUDIO
    TITLE "0:"
    INDEX 01 01:09:48
